<?xml version="1.0" standalone="no"?>
<!DOCTYPE svg PUBLIC "-//W3C//DTD SVG 20010904//EN"
 "http://www.w3.org/TR/2001/REC-SVG-20010904/DTD/svg10.dtd">
<svg version="1.0" xmlns="http://www.w3.org/2000/svg"
 width="700.000000pt" height="700.000000pt" viewBox="0 0 700.000000 700.000000"
 preserveAspectRatio="xMidYMid meet">
<metadata>
Created by potrace 1.14, written by Peter Selinger 2001-2017
</metadata>
<g transform="translate(0.000000,700.000000) scale(0.100000,-0.100000)"
fill="#000000" stroke="none">
<path d="M1956 6209 c-160 -55 -244 -171 -272 -374 -2 -17 -15 -89 -49 -270
-3 -16 -17 -93 -31 -170 -14 -77 -39 -210 -54 -295 -16 -85 -36 -195 -45 -245
-8 -49 -17 -101 -20 -115 -19 -94 -27 -139 -31 -165 -3 -16 -18 -102 -34 -190
-50 -273 -69 -379 -75 -415 -3 -19 -8 -42 -10 -50 -5 -17 -15 -72 -20 -110 -2
-14 -13 -76 -24 -137 -25 -135 -58 -316 -66 -358 -2 -16 -7 -41 -10 -55 -3
-14 -10 -52 -16 -85 -5 -33 -12 -71 -15 -85 -2 -14 -11 -63 -20 -110 -8 -47
-17 -96 -20 -110 -3 -14 -13 -72 -24 -130 -11 -58 -22 -118 -25 -135 -3 -16
-21 -115 -40 -220 -19 -104 -37 -200 -39 -211 -2 -12 -7 -39 -10 -60 -4 -22
-13 -73 -21 -114 -22 -115 -54 -291 -60 -330 -3 -19 -13 -71 -21 -115 -9 -44
-18 -93 -20 -110 -3 -16 -11 -61 -19 -100 -8 -38 -17 -92 -21 -120 -3 -27 -8
-53 -10 -56 -11 -20 -14 -137 -4 -179 15 -62 73 -130 138 -161 l47 -23 540 -1
c570 -1 587 0 682 46 64 30 148 117 178 182 31 65 31 77 3 78 -13 0 -32 2 -43
4 -11 2 -47 7 -80 10 -33 3 -76 7 -95 10 -19 2 -108 6 -198 9 -187 5 -226 17
-287 89 -53 62 -66 129 -46 234 5 26 17 89 25 138 9 50 28 153 42 230 14 77
34 192 45 255 24 136 26 149 39 220 6 30 13 69 15 85 5 27 37 208 65 360 6 33
22 123 35 200 14 77 27 151 30 165 12 69 45 260 51 295 3 22 7 42 9 45 2 3 6
24 9 46 4 22 8 51 11 64 3 14 9 50 15 80 5 30 12 69 15 85 3 17 8 45 11 64 3
18 8 43 10 55 2 11 7 37 10 56 3 19 17 96 31 170 14 74 27 146 28 160 5 34 43
248 60 340 8 41 17 91 20 110 3 19 10 58 15 85 13 70 19 105 25 145 3 19 8 46
11 60 7 30 6 24 44 240 16 96 32 186 35 200 7 35 14 70 35 195 11 61 31 175
45 255 15 80 30 170 36 200 10 60 16 91 25 133 l6 27 -254 0 c-228 -1 -259 -3
-312 -21z"/>
<path d="M5551 6184 c-67 -15 -154 -68 -201 -122 -54 -64 -75 -123 -125 -352
-2 -8 -29 -130 -60 -270 -31 -140 -58 -262 -60 -270 -2 -8 -15 -67 -29 -130
-25 -110 -29 -128 -41 -185 -3 -14 -14 -62 -25 -108 -10 -45 -21 -93 -24 -107
-2 -14 -11 -53 -19 -87 -9 -35 -12 -64 -9 -66 4 -1 171 -3 372 -2 l365 0 17
82 c9 45 19 94 21 110 3 15 10 48 16 73 5 25 12 61 16 80 3 19 10 55 15 80 5
25 12 56 14 70 2 14 18 94 35 179 17 85 33 166 36 180 3 14 7 37 10 51 3 14
17 81 30 150 13 69 47 239 75 377 27 139 50 258 50 265 0 17 -408 18 -479 2z"/>
<path d="M3464 3182 c-19 -3 -20 -8 -18 -160 2 -86 3 -159 3 -163 1 -3 280 -5
622 -5 341 1 623 -2 625 -6 2 -3 -5 -53 -16 -110 -43 -221 -50 -254 -56 -293
-3 -22 -7 -42 -9 -45 -2 -3 -6 -24 -9 -46 -7 -42 -10 -58 -26 -139 -5 -27 -12
-61 -14 -75 -3 -14 -10 -50 -15 -80 -17 -84 -19 -97 -41 -215 -12 -60 -25
-130 -30 -155 -6 -25 -12 -61 -15 -80 -3 -19 -12 -69 -20 -110 -23 -118 -65
-331 -73 -370 -14 -68 -7 -183 12 -220 24 -44 71 -92 116 -116 33 -18 64 -19
615 -19 l580 0 66 32 c79 39 150 111 185 188 37 81 40 79 -96 91 -41 3 -84 8
-95 11 -11 2 -96 7 -190 9 -93 3 -190 10 -215 15 -61 14 -123 63 -156 124 -33
60 -36 125 -11 255 9 47 19 96 21 110 3 14 23 124 46 245 23 121 43 232 45
247 2 15 6 35 9 45 3 10 8 36 11 58 3 23 8 52 10 65 6 29 91 490 99 535 3 17
15 80 27 140 12 61 24 138 26 173 l5 62 -68 1 c-289 2 -1933 3 -1950 1z"/>
</g>
</svg>
